<svg id="instagram" xmlns="http://www.w3.org/2000/svg" width="24.708" height="24.708" viewBox="0 0 24.708 24.708">
  <path id="Path_1649" data-name="Path 1649" d="M18.02,0H6.688A6.7,6.7,0,0,0,0,6.688V18.02a6.7,6.7,0,0,0,6.688,6.688H18.02a6.7,6.7,0,0,0,6.688-6.688V6.688A6.7,6.7,0,0,0,18.02,0ZM12.354,19.11a6.756,6.756,0,1,1,6.756-6.756A6.764,6.764,0,0,1,12.354,19.11ZM19.272,7.191a2,2,0,1,1,2-2A2,2,0,0,1,19.272,7.191Zm0,0" fill="#464646"/>
  <path id="Path_1650" data-name="Path 1650" d="M151.327,146.02a5.307,5.307,0,1,0,5.307,5.307A5.314,5.314,0,0,0,151.327,146.02Zm0,0" transform="translate(-138.973 -138.973)" fill="#464646"/>
  <path id="Path_1651" data-name="Path 1651" d="M388.54,96.3a.548.548,0,1,0,.548.548A.549.549,0,0,0,388.54,96.3Zm0,0" transform="translate(-369.268 -91.653)" fill="#464646"/>
</svg>
