<svg id="instagram" xmlns="http://www.w3.org/2000/svg" width="21.406" height="21.406" viewBox="0 0 21.406 21.406">
  <path id="Path_1649" data-name="Path 1649" d="M15.612,0H5.795A5.8,5.8,0,0,0,0,5.795v9.818a5.8,5.8,0,0,0,5.795,5.794h9.818a5.8,5.8,0,0,0,5.794-5.794V5.795A5.8,5.8,0,0,0,15.612,0ZM10.7,16.556A5.853,5.853,0,1,1,16.556,10.7,5.86,5.86,0,0,1,10.7,16.556ZM16.7,6.23a1.73,1.73,0,1,1,1.73-1.73A1.731,1.731,0,0,1,16.7,6.23Zm0,0" fill="#fff"/>
  <path id="Path_1650" data-name="Path 1650" d="M150.618,146.02a4.6,4.6,0,1,0,4.6,4.6A4.6,4.6,0,0,0,150.618,146.02Zm0,0" transform="translate(-139.915 -139.915)" fill="#fff"/>
  <path id="Path_1651" data-name="Path 1651" d="M388.467,96.3a.475.475,0,1,0,.475.475A.475.475,0,0,0,388.467,96.3Zm0,0" transform="translate(-371.77 -92.275)" fill="#fff"/>
</svg>
