<svg id="linkedin" xmlns="http://www.w3.org/2000/svg" width="20.872" height="20.872" viewBox="0 0 20.872 20.872">
  <path id="Path_1646" data-name="Path 1646" d="M21.973,21.859h.005V14.2c0-3.745-.806-6.629-5.184-6.629A4.545,4.545,0,0,0,12.7,9.824H12.64v-1.9H8.489V21.858h4.322v-6.9c0-1.817.344-3.573,2.594-3.573,2.217,0,2.25,2.073,2.25,3.69v6.784Z" transform="translate(-1.106 -0.987)" fill="#fff"/>
  <path id="Path_1647" data-name="Path 1647" d="M.4,7.977H4.723V21.912H.4Z" transform="translate(-0.052 -1.04)" fill="#fff"/>
  <path id="Path_1648" data-name="Path 1648" d="M2.506,0A2.518,2.518,0,1,0,5.013,2.506,2.507,2.507,0,0,0,2.506,0Z" fill="#fff"/>
</svg>
