<svg id="linkedin" xmlns="http://www.w3.org/2000/svg" width="24.091" height="24.091" viewBox="0 0 24.091 24.091">
  <path id="Path_1646" data-name="Path 1646" d="M24.053,24.062h.006V15.226c0-4.322-.931-7.652-5.984-7.652a5.246,5.246,0,0,0-4.725,2.6h-.07V7.978H8.489V24.061h4.989V16.1c0-2.1.4-4.125,2.994-4.125,2.559,0,2.6,2.393,2.6,4.259v7.831Z" transform="translate(0.032 0.029)" fill="#464646"/>
  <path id="Path_1647" data-name="Path 1647" d="M.4,7.977H5.391V24.061H.4Z" transform="translate(0.002 0.03)" fill="#464646"/>
  <path id="Path_1648" data-name="Path 1648" d="M2.893,0A2.907,2.907,0,1,0,5.786,2.893,2.894,2.894,0,0,0,2.893,0Z" fill="#464646"/>
</svg>
