<svg xmlns="http://www.w3.org/2000/svg" width="21.486" height="16.367" viewBox="0 0 21.486 16.367">
  <g id="mail" transform="translate(0 -61)">
    <g id="Group_1230" data-name="Group 1230" transform="translate(0 61)">
      <path id="Path_3054" data-name="Path 3054" d="M19.6,61H1.888A1.892,1.892,0,0,0,0,62.888v12.59a1.892,1.892,0,0,0,1.888,1.888H19.6a1.892,1.892,0,0,0,1.888-1.888V62.888A1.892,1.892,0,0,0,19.6,61Zm-.261,1.259-8.554,8.554L2.155,62.259ZM1.259,75.217V63.143l6.063,6.011Zm.89.89,6.067-6.067,2.126,2.108a.629.629,0,0,0,.888,0L13.3,70.073l6.034,6.034Zm18.078-.89-6.034-6.034,6.034-6.034Z" transform="translate(0 -61)" fill="#f43535"/>
    </g>
  </g>
</svg>
