<svg xmlns="http://www.w3.org/2000/svg" width="20.186" height="20.187" viewBox="0 0 20.186 20.187">
  <g id="phone" transform="translate(0.85 0.85)">
    <g id="Group_1229" data-name="Group 1229" transform="translate(0)">
      <path id="Path_3053" data-name="Path 3053" d="M17,12.134a10.5,10.5,0,0,1-3.3-.525,1.507,1.507,0,0,0-1.465.309l-2.079,1.569A11.487,11.487,0,0,1,5,8.324L6.521,6.3a1.494,1.494,0,0,0,.368-1.514,10.512,10.512,0,0,1-.527-3.3A1.485,1.485,0,0,0,4.878,0H1.483A1.485,1.485,0,0,0,0,1.483a17.022,17.022,0,0,0,17,17A1.485,1.485,0,0,0,18.486,17V13.617A1.485,1.485,0,0,0,17,12.134Z" transform="translate(0)" fill="none" stroke="#f43535" stroke-width="1.7"/>
    </g>
  </g>
</svg>
