<svg id="phone" xmlns="http://www.w3.org/2000/svg" width="15.565" height="15.565" viewBox="0 0 15.565 15.565">
  <g id="Group_811" data-name="Group 811">
    <path id="Path_1630" data-name="Path 1630" d="M14.316,10.217a8.837,8.837,0,0,1-2.775-.442,1.269,1.269,0,0,0-1.234.26l-1.75,1.321A9.672,9.672,0,0,1,4.208,7.008L5.491,5.3A1.258,1.258,0,0,0,5.8,4.029a8.851,8.851,0,0,1-.444-2.78A1.25,1.25,0,0,0,4.107,0H1.249A1.25,1.25,0,0,0,0,1.249,14.332,14.332,0,0,0,14.316,15.565a1.25,1.25,0,0,0,1.249-1.249v-2.85A1.25,1.25,0,0,0,14.316,10.217Z" fill="#fff"/>
  </g>
</svg>
