<svg id="pinterest" xmlns="http://www.w3.org/2000/svg" width="24.322" height="24.322" viewBox="0 0 24.322 24.322">
  <g id="Group_838" data-name="Group 838">
    <path id="Path_1652" data-name="Path 1652" d="M18.222,0H6.081A6.109,6.109,0,0,0,0,6.1V18.242a6.1,6.1,0,0,0,6.081,6.081H18.222a6.113,6.113,0,0,0,6.1-6.1V6.1A6.113,6.113,0,0,0,18.222,0ZM13.377,15.539a2.605,2.605,0,0,1-2.2-1.081s-.521,2.008-.637,2.394a9.506,9.506,0,0,1-1.621,2.857.119.119,0,0,1-.212-.058,10.03,10.03,0,0,1,.019-3.32c.174-.714,1.158-4.749,1.158-4.749a3.244,3.244,0,0,1-.29-1.371c0-1.293.772-2.259,1.737-2.259a1.191,1.191,0,0,1,1.216,1.313,18.2,18.2,0,0,1-.791,3.089,1.363,1.363,0,0,0,1.428,1.679c1.7,0,2.857-2.123,2.857-4.633,0-1.911-1.332-3.339-3.745-3.339a4.208,4.208,0,0,0-4.44,4.17,2.5,2.5,0,0,0,.6,1.718c.174.193.193.27.135.483-.039.154-.135.54-.193.695a.3.3,0,0,1-.444.212A3.346,3.346,0,0,1,6.119,10c0-2.471,2.162-5.444,6.428-5.444,3.436,0,5.695,2.413,5.695,5C18.222,12.991,16.273,15.539,13.377,15.539Z" fill="#464646"/>
  </g>
</svg>
