<svg id="pinterest" xmlns="http://www.w3.org/2000/svg" width="21.072" height="21.072" viewBox="0 0 21.072 21.072">
  <g id="Group_838" data-name="Group 838">
    <path id="Path_1652" data-name="Path 1652" d="M15.787,0H5.268A5.292,5.292,0,0,0,0,5.285V15.8a5.289,5.289,0,0,0,5.268,5.268H15.787a5.3,5.3,0,0,0,5.285-5.285V5.285A5.3,5.3,0,0,0,15.787,0Zm-4.2,13.463a2.257,2.257,0,0,1-1.907-.937s-.452,1.739-.552,2.074a8.236,8.236,0,0,1-1.4,2.475.1.1,0,0,1-.184-.05,8.69,8.69,0,0,1,.017-2.876c.151-.619,1-4.114,1-4.114a2.811,2.811,0,0,1-.251-1.187c0-1.12.669-1.957,1.505-1.957A1.031,1.031,0,0,1,10.87,8.027a15.771,15.771,0,0,1-.686,2.676,1.181,1.181,0,0,0,1.238,1.455c1.472,0,2.475-1.84,2.475-4.014,0-1.656-1.154-2.893-3.244-2.893A3.646,3.646,0,0,0,6.807,8.864a2.166,2.166,0,0,0,.518,1.488c.151.167.167.234.117.418-.033.134-.117.468-.167.6a.262.262,0,0,1-.385.184A2.9,2.9,0,0,1,5.3,8.663c0-2.141,1.873-4.716,5.569-4.716,2.977,0,4.934,2.09,4.934,4.331C15.787,11.255,14.1,13.463,11.59,13.463Z" fill="#fff"/>
  </g>
</svg>
