<svg id="twitter" xmlns="http://www.w3.org/2000/svg" width="29.651" height="24.091" viewBox="0 0 29.651 24.091">
  <g id="Group_837" data-name="Group 837" transform="translate(0 0)">
    <path id="Path_1645" data-name="Path 1645" d="M29.651,50.852a12.674,12.674,0,0,1-3.5.96,6.045,6.045,0,0,0,2.674-3.36,12.148,12.148,0,0,1-3.855,1.471A6.078,6.078,0,0,0,14.453,54.08a6.259,6.259,0,0,0,.141,1.386A17.206,17.206,0,0,1,2.064,49.108a6.08,6.08,0,0,0,1.868,8.124,6,6,0,0,1-2.746-.749v.067a6.107,6.107,0,0,0,4.87,5.973,6.067,6.067,0,0,1-1.594.2,5.374,5.374,0,0,1-1.151-.1,6.137,6.137,0,0,0,5.68,4.234,12.214,12.214,0,0,1-7.537,2.593A11.386,11.386,0,0,1,0,69.363a17.113,17.113,0,0,0,9.325,2.728c11.186,0,17.3-9.266,17.3-17.3,0-.269-.009-.528-.022-.786A12.127,12.127,0,0,0,29.651,50.852Z" transform="translate(0 -48)" fill="#464646"/>
  </g>
</svg>
