<svg id="twitter" xmlns="http://www.w3.org/2000/svg" width="25.688" height="20.872" viewBox="0 0 25.688 20.872">
  <g id="Group_837" data-name="Group 837" transform="translate(0 0)">
    <path id="Path_1645" data-name="Path 1645" d="M25.688,50.471a10.98,10.98,0,0,1-3.034.832,5.237,5.237,0,0,0,2.317-2.911,10.525,10.525,0,0,1-3.339,1.275,5.266,5.266,0,0,0-9.11,3.6,5.423,5.423,0,0,0,.122,1.2A14.906,14.906,0,0,1,1.789,48.96,5.268,5.268,0,0,0,3.407,56a5.2,5.2,0,0,1-2.379-.649v.058a5.291,5.291,0,0,0,4.219,5.175,5.256,5.256,0,0,1-1.381.173,4.656,4.656,0,0,1-1-.09A5.316,5.316,0,0,0,7.79,64.334a10.582,10.582,0,0,1-6.53,2.246A9.864,9.864,0,0,1,0,66.508a14.826,14.826,0,0,0,8.079,2.363A14.886,14.886,0,0,0,23.068,53.886c0-.233-.008-.458-.019-.681A10.506,10.506,0,0,0,25.688,50.471Z" transform="translate(0 -48)" fill="#fff"/>
  </g>
</svg>
