<svg id="whatsapp" xmlns="http://www.w3.org/2000/svg" width="15.772" height="15.772" viewBox="0 0 15.772 15.772">
  <g id="Group_846" data-name="Group 846">
    <path id="Path_1653" data-name="Path 1653" d="M7.888,0h0A7.881,7.881,0,0,0,1.5,12.508l-.983,2.93,3.031-.969A7.885,7.885,0,1,0,7.888,0Zm4.589,11.136a2.225,2.225,0,0,1-1.548,1.113c-.412.088-.95.158-2.762-.593A9.879,9.879,0,0,1,4.241,8.188,4.5,4.5,0,0,1,3.3,5.809,2.518,2.518,0,0,1,4.111,3.89a1.146,1.146,0,0,1,.806-.283c.1,0,.185,0,.264.009.232.01.348.024.5.389.19.458.654,1.59.709,1.706a.469.469,0,0,1,.034.427,1.363,1.363,0,0,1-.255.362c-.116.134-.227.237-.343.381-.106.125-.227.259-.093.491a7,7,0,0,0,1.28,1.59A5.8,5.8,0,0,0,8.862,10.1a.5.5,0,0,0,.556-.088,9.542,9.542,0,0,0,.616-.816.44.44,0,0,1,.566-.172c.213.074,1.34.631,1.571.746s.384.172.441.269A1.964,1.964,0,0,1,12.477,11.136Z" fill="#fff"/>
  </g>
</svg>
